<?xml version="1.0" encoding="UTF-8" standalone="no"?>
<!-- Created with Inkscape (http://www.inkscape.org/) -->

<svg
   width="210mm"
   height="297mm"
   viewBox="0 0 210 297"
   version="1.1"
   id="svg63874"
   xmlns="http://www.w3.org/2000/svg"
   xmlns:svg="http://www.w3.org/2000/svg">
  <defs
     id="defs63871" />
  <g
     id="layer1">
    <g
       id="g63837"
       transform="matrix(0.35277777,0,0,-0.35277777,-23.668166,70.37819)">
      <g
         id="g118"
         transform="translate(-229.89965,43.546217)"
         style="fill:#fdf0d5;fill-opacity:1">
        <text
           transform="matrix(1,0,0,-1,293.229,70.0781)"
           style="font-variant:normal;font-weight:normal;font-size:33.0743px;font-family:PatuaOne;-inkscape-font-specification:PatuaOne-Regular;writing-mode:lr-tb;fill:#fdf0d5;fill-opacity:1;fill-rule:nonzero;stroke:none"
           id="text122"><tspan
             id="tspan120"
             x="0"
             y="0">PLANNER</tspan></text>
      </g>
      <path
         d="m 183.11535,180.68222 c -3.227,0.573 -6.672,-1.001 -8.983,-3.182 -1.551,-1.464 -2.668,-3.393 -2.995,-5.515 -0.328,-2.123 -0.315,-3.408 -1.661,-5.317 -0.274,-0.391 -0.604,-0.74 -0.963,-1.054 l -19.85,-18.742 c -3.86,-3.56 1.171,-8.339 4.545,-4.545 l 18.743,19.85 c 0.312,0.359 0.663,0.688 1.053,0.963 1.909,1.345 3.195,1.333 5.318,1.661 2.12,0.327 4.05,1.444 5.514,2.995 2.181,2.312 3.755,5.756 3.181,8.982 -0.176,0.993 -0.648,1.884 -1.319,2.583 -0.7,0.671 -1.591,1.144 -2.583,1.321"
         style="fill:#fdf0d5;fill-opacity:1;fill-rule:nonzero;stroke:none;stroke-width:0.1"
         id="path130" />
      <path
         d="m 129.34835,147.04022 -19.93,18.814 c -0.359,0.313 -0.688,0.663 -0.964,1.053 -1.524,2.366 -0.803,6.026 -3.613,8.827 l -0.004,-0.005 c -0.161,0.18 -0.332,0.352 -0.522,0.507 l -8.532004,6.939 c -0.25,0.203 -0.614,0.184 -0.841,-0.043 -0.235,-0.233 -0.235,-0.612 0,-0.846 l 7.691004,-7.691 c 0.009,-0.01 0.009,-0.025 0,-0.033 l -0.703,-0.709 -8.097004,7.325 c -0.233,0.233 -0.612,0.233 -0.845,0 -0.228,-0.228 -0.246,-0.591 -0.043,-0.841 l 7.350004,-8.122 -0.675004,-0.674 -8.098,7.326 c -0.234,0.234 -0.611,0.234 -0.845,0 -0.228,-0.228 -0.247,-0.592 -0.043,-0.842 l 7.347,-8.118 -0.707,-0.705 c -0.009,-0.009 -0.024,-0.009 -0.033,0 l -7.692,7.693 c -0.233,0.233 -0.612,0.232 -0.845,0 -0.228,-0.229 -0.247,-0.592 -0.043,-0.842 l 6.938,-8.532 c 0.155,-0.191 0.327,-0.362 0.508,-0.524 l -0.006,-0.003 c 2.801,-2.81 6.461004,-2.09 8.827004,-3.614 0.39,-0.274 0.74,-0.605 1.054,-0.964 l 18.814,-19.929 c 3.757,-4.06 8.715,0.689 4.552,4.553"
         style="fill:#fdf0d5;fill-opacity:1;fill-rule:nonzero;stroke:none;stroke-width:0.1"
         id="path132" />
      <path
         d="m 145.51935,172.16922 -7.69,23.906 -7.37,-23.906 -20.858,13.881 16.48,-29.25 h 11.748 11.746 l 16.48,29.25 -20.536,-13.881"
         style="fill:#669bbc;fill-opacity:1;fill-rule:nonzero;stroke:none;stroke-width:0.1"
         id="path134" />
      <path
         d="m 140.34935,196.07522 c 0,-1.392 -1.129,-2.52 -2.52,-2.52 -1.393,0 -2.521,1.128 -2.521,2.52 0,1.392 1.128,2.521 2.521,2.521 1.391,0 2.52,-1.129 2.52,-2.521"
         style="fill:#669bbc;fill-opacity:1;fill-rule:nonzero;stroke:none;stroke-width:0.1"
         id="path136" />
      <path
         d="m 112.87035,185.48622 c 0,-1.391 -1.129,-2.52 -2.521,-2.52 -1.393,0 -2.52,1.129 -2.52,2.52 0,1.393 1.127,2.521 2.52,2.521 1.392,0 2.521,-1.128 2.521,-2.521"
         style="fill:#669bbc;fill-opacity:1;fill-rule:nonzero;stroke:none;stroke-width:0.1"
         id="path138" />
      <path
         d="m 167.82835,185.48622 c 0,-1.391 -1.128,-2.52 -2.521,-2.52 -1.392,0 -2.52,1.129 -2.52,2.52 0,1.393 1.128,2.521 2.52,2.521 1.393,0 2.521,-1.128 2.521,-2.521"
         style="fill:#669bbc;fill-opacity:1;fill-rule:nonzero;stroke:none;stroke-width:0.1"
         id="path140" />
      <path
         d="m 92.176346,98.339216 c 0,-0.5981 -0.484,-1.0821 -1.082,-1.0821 -0.598,0 -1.082,0.484 -1.082,1.0821 0,0.5992 0.484,1.0832 1.082,1.0832 0.598,0 1.082,-0.484 1.082,-1.0832"
         style="fill:#ffffff;fill-opacity:1;fill-rule:nonzero;stroke:none;stroke-width:0.1"
         id="path142" />
      <path
         d="m 184.97635,98.339216 c 0,-0.5981 -0.484,-1.0821 -1.082,-1.0821 -0.598,0 -1.082,0.484 -1.082,1.0821 0,0.5992 0.484,1.0832 1.082,1.0832 0.598,0 1.082,-0.484 1.082,-1.0832"
         style="fill:#ffffff;fill-opacity:1;fill-rule:nonzero;stroke:none;stroke-width:0.1"
         id="path144" />
    </g>
  </g>
</svg>
